<?xml version="1.0" encoding="utf-8"?>
<!-- Generator: Adobe Illustrator 18.0.0, SVG Export Plug-In . SVG Version: 6.00 Build 0)  -->
<!DOCTYPE svg PUBLIC "-//W3C//DTD SVG 1.1//EN" "http://www.w3.org/Graphics/SVG/1.1/DTD/svg11.dtd">
<svg version="1.1" id="Layer_1" xmlns="http://www.w3.org/2000/svg" xmlns:xlink="http://www.w3.org/1999/xlink" x="0px" y="0px"
	 viewBox="0 0 150 200" enable-background="new 0 0 150 200" xml:space="preserve">
<ellipse fill="#3C200F" cx="75" cy="163.4" rx="68.9" ry="31.3"/>
<g>
	<path fill="#6B6158" d="M80.9,108H76c0.1,0,0.1-0.2,0.2-0.3c1.1-0.9,2.3-1.6,3.6-2.2c-1.6-0.3-3.3,0.2-4.5,1.3
		c-0.2-0.9-0.5-1.7-1-2.5c-0.3,0.5-0.5,1.3-0.7,2.1c-0.8-1.1-2-2-3.4-2.3c0.9,0.9,1.4,2,1.7,3.3c-0.8-0.6-1.9-0.7-2.9-0.4
		c0.7,0.2,1.3,0.1,1.8,1.1h-1.7c-18,0-32.1,14.3-32.1,32.3V172h76v-31.7C113,122.3,98.9,108,80.9,108z"/>
</g>
<line fill="none" stroke="#000000" stroke-width="1.0689" stroke-miterlimit="10" x1="54.7" y1="133.9" x2="54.7" y2="133.9"/>
<path fill="none" stroke="#49423D" stroke-width="0.5345" stroke-linecap="round" stroke-miterlimit="10" d="M57.9,131.6
	c0.6-1.3,1.5-2.4,2.7-3.1s2.7-0.9,4-0.4"/>
<path fill="none" stroke="#49423D" stroke-width="0.5345" stroke-linecap="round" stroke-miterlimit="10" d="M83.2,128.4
	c1.3-0.9,2.8-1.4,4.4-1.4s3.1,0.9,3.9,2.2c0.5,0.9,0.7,1.9,0.8,2.9"/>
<ellipse fill="#FFFFFF" cx="85.4" cy="143.4" rx="8" ry="10.2"/>
<ellipse fill="#FFFFFF" cx="65.1" cy="143.4" rx="8" ry="10.2"/>
<path fill="#49423D" d="M73,143.4c0-5.6-3.6-10.2-8-10.2c-4.4,0-8,4.6-8,10.2c0,0,2.3-5.1,8-5.1S73,143.4,73,143.4z"/>
<path fill="#49423D" d="M93.4,143.4c0-5.6-3.6-10.2-8-10.2c-4.4,0-8,4.6-8,10.2c0,0,2.3-5.1,8-5.1C91,138.3,93.4,143.4,93.4,143.4z"
	/>
<g>
	<ellipse fill="#49423D" cx="65.1" cy="146.6" rx="2.4" ry="2.1"/>
	<ellipse transform="matrix(0.638 0.7701 -0.7701 0.638 135.0683 2.9104)" fill="#FFFFFF" cx="64.4" cy="145.1" rx="0.4" ry="0.6"/>
</g>
<g>
	<ellipse fill="#49423D" cx="85.4" cy="146.6" rx="2.4" ry="2.1"/>
	
		<ellipse transform="matrix(0.638 0.7701 -0.7701 0.638 142.4212 -12.7293)" fill="#FFFFFF" cx="84.7" cy="145.1" rx="0.4" ry="0.6"/>
</g>
<g>
	<path fill="#B7A79F" d="M79.8,159c-0.1,1-0.3,3.2,0.4,4.6c0.8,1.7,2.7,2.7,4.5,3.4c6,2.4,13.8,3.1,19.2,6.7
		c5.3,3.5,8.7,3.2,8.8,10.2H38c0-7,3.4-6.8,8.8-10.3c5.4-3.6,12.2-4.3,18.2-6.7c1.8-0.7,3.7-1.6,4.5-3.4c0.7-1.5,0.6-3.7,0.4-4.7
		H79.8z"/>
</g>
<ellipse fill="#26221F" cx="75" cy="160.4" rx="5.3" ry="4.5"/>
<path fill="none" stroke="#49423D" stroke-width="0.2672" stroke-linecap="round" stroke-miterlimit="10" d="M80.9,159.3
	c3.8-1.6,8-2.5,12.1-2.9"/>
<path fill="none" stroke="#49423D" stroke-width="0.2672" stroke-linecap="round" stroke-miterlimit="10" d="M81.2,161.6
	c1.8,0.7,3.6,1.4,5.3,2.1"/>
<path fill="none" stroke="#49423D" stroke-width="0.2672" stroke-linecap="round" stroke-miterlimit="10" d="M81.2,160.4
	c0.4-0.1,0.8-0.1,1.2-0.1c2.3,0,4.6,0.1,6.9,0.2"/>
<path fill="none" stroke="#49423D" stroke-width="0.2672" stroke-linecap="round" stroke-miterlimit="10" d="M68.5,159.3
	c-3.8-1.6-8-2.5-12.1-2.9"/>
<path fill="none" stroke="#49423D" stroke-width="0.2672" stroke-linecap="round" stroke-miterlimit="10" d="M68.2,161.6
	c-1.8,0.7-3.6,1.4-5.3,2.1"/>
<path fill="none" stroke="#49423D" stroke-width="0.2672" stroke-linecap="round" stroke-miterlimit="10" d="M68.2,160.4
	c-0.4-0.1-0.8-0.1-1.2-0.1c-2.3,0-4.6,0.1-6.9,0.2"/>
<rect x="34.2" y="172" fill="#3C200F" width="81.7" height="12.5"/>
</svg>
