<?xml version="1.0" encoding="utf-8"?>
<!-- Generator: Adobe Illustrator 18.0.0, SVG Export Plug-In . SVG Version: 6.00 Build 0)  -->
<!DOCTYPE svg PUBLIC "-//W3C//DTD SVG 1.1//EN" "http://www.w3.org/Graphics/SVG/1.1/DTD/svg11.dtd">
<svg version="1.1" id="Layer_1" xmlns="http://www.w3.org/2000/svg" xmlns:xlink="http://www.w3.org/1999/xlink" x="0px" y="0px"
	 viewBox="0 0 150 200" enable-background="new 0 0 150 200" xml:space="preserve">
<ellipse fill="#3C200F" cx="75" cy="163.4" rx="68.9" ry="31.3"/>
<g>
	<path fill="#6B6158" d="M80.9,130H76c0.1,0,0.1-0.2,0.2-0.3c1.1-0.9,2.3-1.6,3.6-2.2c-1.6-0.3-3.3,0.2-4.5,1.3
		c-0.2-0.9-0.5-1.7-1-2.5c-0.3,0.5-0.5,1.3-0.7,2.1c-0.8-1.1-2-2-3.4-2.3c0.9,0.9,1.4,2,1.7,3.3c-0.8-0.6-1.9-0.7-2.9-0.4
		c0.7,0.2,1.3,0.1,1.8,1.1h-1.7c-18,0-32.1,14.3-32.1,32.3v9.7h76v-9.7C113,144.3,98.9,130,80.9,130z"/>
</g>
<line fill="none" stroke="#000000" stroke-width="1.0689" stroke-miterlimit="10" x1="54.7" y1="155.9" x2="54.7" y2="155.9"/>
<path fill="none" stroke="#49423D" stroke-width="0.5345" stroke-linecap="round" stroke-miterlimit="10" d="M57.9,153.6
	c0.6-1.3,1.5-2.4,2.7-3.1s2.7-0.9,4-0.4"/>
<path fill="none" stroke="#49423D" stroke-width="0.5345" stroke-linecap="round" stroke-miterlimit="10" d="M83.2,150.4
	c1.3-0.9,2.8-1.4,4.4-1.4s3.1,0.9,3.9,2.2c0.5,0.9,0.7,1.9,0.8,2.9"/>
<ellipse fill="#FFFFFF" cx="85.4" cy="165.4" rx="8" ry="10.2"/>
<ellipse fill="#FFFFFF" cx="65.1" cy="165.4" rx="8" ry="10.2"/>
<path fill="#49423D" d="M73,165.4c0-5.6-3.6-10.2-8-10.2c-4.4,0-8,4.6-8,10.2c0,0,2.3-5.1,8-5.1S73,165.4,73,165.4z"/>
<path fill="#49423D" d="M93.4,165.4c0-5.6-3.6-10.2-8-10.2c-4.4,0-8,4.6-8,10.2c0,0,2.3-5.1,8-5.1C91,160.3,93.4,165.4,93.4,165.4z"
	/>
<g>
	<ellipse fill="#49423D" cx="65.1" cy="168.6" rx="2.4" ry="2.1"/>
	
		<ellipse transform="matrix(0.638 0.7701 -0.7701 0.638 152.0099 10.8754)" fill="#FFFFFF" cx="64.4" cy="167.1" rx="0.4" ry="0.6"/>
</g>
<g>
	<ellipse fill="#49423D" cx="85.4" cy="168.6" rx="2.4" ry="2.1"/>
	
		<ellipse transform="matrix(0.638 0.7701 -0.7701 0.638 159.3628 -4.7643)" fill="#FFFFFF" cx="84.7" cy="167.1" rx="0.4" ry="0.6"/>
</g>
<rect x="34.3" y="172" fill="#3C200F" width="81.7" height="11.3"/>
</svg>
